# xmcd CD database file generated by freedbAccess_ocx
#
# Track frame offsets:
#       150
#       18666
#       38057
#       53743
#       68343
#       84101
#       100616
#       117652
#       134271
#       152515
#       166197
#       186822
#       204258
#       228204
#
# Disc length: 3253 seconds
#
# Revision: 0
# Processed by: cddbd v1.5.2PL0 Copyright (c) Steve Scherf et al.
# Submitted via: CDnGo 2.00
#
DISCID=a00cb30e
DTITLE=For Two - eleven years ...
DYEAR=2005
DGENRE=Classic Rock
TTITLE0=All I Wanna Do Is Have Some Fun
TTITLE1=That Don't Impress Me Much
TTITLE2=Time After Time
TTITLE3=Every Breath You Take
TTITLE4=Sweet Dreams
TTITLE5=Sleep While I Drive
TTITLE6=Midnight Special
TTITLE7=Let It Be
TTITLE8=Walk On The Wild Side
TTITLE9=I'm Too Sexy
TTITLE10=Round Here
TTITLE11=Bitch
TTITLE12=Smells Like Teen Spirit
TTITLE13=Für mich soll's rote Rosen regnen
EXTD=
EXTT0=
EXTT1=
EXTT2=
EXTT3=
EXTT4=
EXTT5=
EXTT6=
EXTT7=
EXTT8=
EXTT9=
EXTT10=
EXTT11=
EXTT12=
EXTT13=
PLAYORDER=
